<svg xmlns="http://www.w3.org/2000/svg" viewBox="0 0 245.49 283.46"><defs><style>.cls-1{fill:#80b9e4;}.cls-2{fill:#3372b9;}.cls-3{fill:#fff;}.cls-4{fill:#4791ce;}</style></defs><title>pandora</title><polygon class="cls-1" points="122.74 283.46 245.49 212.6 245.49 70.87 122.74 141.73 122.74 283.46"/><path class="cls-2" d="M0,70.87V212.6l122.74,70.87V141.73ZM66.06,250.74l-26.7-15.41V189.87l26.7,15.41Z"/><polygon class="cls-3" points="39.36 235.32 66.06 250.74 66.06 205.28 39.36 189.87 39.36 235.32"/><polygon class="cls-4" points="0 70.87 122.74 0 245.49 70.87 122.74 141.73 0 70.87"/><polygon id="white" class="cls-3" points="122.74 45.45 39.36 93.59 39.36 189.87 122.74 238.01 206.12 189.87 206.12 93.59 122.74 45.45"/><polygon class="cls-2" points="66.06 109 66.06 174.46 122.74 207.19 122.74 141.73 66.06 109"/><polygon class="cls-1" points="122.74 207.19 179.43 174.46 179.43 109 122.74 141.73 122.74 207.19"/><polygon class="cls-4" points="66.06 109 122.74 76.28 179.43 109 122.74 141.73 66.06 109"/></svg>