<svg id="Layer_1" data-name="Layer 1" xmlns="http://www.w3.org/2000/svg" viewBox="0 0 400 400">
  <defs>
    <style>.cls-1{fill:#334bff;}</style>
  </defs>
  <path fill="#cccccc" d="M63.15,198.06h.07V54.44A18.33,18.33,0,0,1,81.53,36.12H332.9a18.34,18.34,0,0,1,18.32,18.32V198.06h13V54.44A31.32,31.32,0,0,0,332.9,23.12H81.53A31.31,31.31,0,0,0,50.22,54.44V235.11H63.15Z"/>
  <rect fill="#cccccc" x="188.09" y="59.94" width="38.26" height="13.01"/>
  <path fill="#cccccc" d="M181.54,323.53H77.79C45,323.53,29.3,308,21.9,295a63.19,63.19,0,0,1-8-28.46V260H181.54v13H27.59c2.24,12.28,11.54,37.49,50.2,37.49H181.54Z"/>
  <path class="cls-1" d="M386.12,367.68l-51.3-51.3a68.68,68.68,0,1,0-9.15,9.24l51.26,51.26ZM281.78,328.57A55.54,55.54,0,1,1,337.32,273,55.61,55.61,0,0,1,281.78,328.57Z"/>
</svg>
